<mxfile host="Electron" modified="2024-02-27T18:53:33.858Z" agent="Mozilla/5.0 (Macintosh; Intel Mac OS X 10_15_7) AppleWebKit/537.36 (KHTML, like Gecko) draw.io/21.1.2 Chrome/106.0.5249.199 Electron/21.4.3 Safari/537.36" etag="fXCw19d6fa-_RpmYJqpd" version="21.1.2" type="device">
  <diagram name="Page-1" id="HPLXHQEmRhS9U9et3TV_">
    <mxGraphModel dx="621" dy="410" grid="0" gridSize="10" guides="1" tooltips="1" connect="1" arrows="1" fold="1" page="1" pageScale="1" pageWidth="1700" pageHeight="1100" math="0" shadow="0">
      <root>
        <mxCell id="0" />
        <mxCell id="1" parent="0" />
        <mxCell id="VgMdmC_-06mLi6aTnrPO-79" value="" style="rounded=1;whiteSpace=wrap;html=1;fillColor=#FFE6E6;strokeColor=none;" vertex="1" parent="1">
          <mxGeometry x="680" y="650" width="200" height="40" as="geometry" />
        </mxCell>
        <mxCell id="VgMdmC_-06mLi6aTnrPO-1" value="tier&lt;sub&gt;0&lt;/sub&gt;" style="text;html=1;strokeColor=none;fillColor=none;align=center;verticalAlign=middle;whiteSpace=wrap;rounded=0;" vertex="1" parent="1">
          <mxGeometry x="560" y="420" width="40" height="20" as="geometry" />
        </mxCell>
        <mxCell id="VgMdmC_-06mLi6aTnrPO-2" value="tier&lt;sub&gt;1&lt;/sub&gt;" style="text;html=1;strokeColor=none;fillColor=none;align=center;verticalAlign=middle;whiteSpace=wrap;rounded=0;" vertex="1" parent="1">
          <mxGeometry x="560" y="480" width="40" height="20" as="geometry" />
        </mxCell>
        <mxCell id="VgMdmC_-06mLi6aTnrPO-4" value="⋮" style="text;html=1;strokeColor=none;fillColor=none;align=center;verticalAlign=middle;whiteSpace=wrap;rounded=0;fontStyle=1" vertex="1" parent="1">
          <mxGeometry x="560" y="540" width="40" height="20" as="geometry" />
        </mxCell>
        <mxCell id="VgMdmC_-06mLi6aTnrPO-7" value="tier&lt;sub&gt;&lt;i&gt;n&amp;nbsp;&lt;/i&gt;-1&lt;/sub&gt;" style="text;html=1;strokeColor=none;fillColor=none;align=center;verticalAlign=middle;whiteSpace=wrap;rounded=0;" vertex="1" parent="1">
          <mxGeometry x="560" y="600" width="40" height="20" as="geometry" />
        </mxCell>
        <mxCell id="VgMdmC_-06mLi6aTnrPO-8" value="tier&lt;sub&gt;&lt;i&gt;n&lt;/i&gt;&lt;/sub&gt;" style="text;html=1;strokeColor=none;fillColor=none;align=center;verticalAlign=middle;whiteSpace=wrap;rounded=0;" vertex="1" parent="1">
          <mxGeometry x="560" y="660" width="40" height="20" as="geometry" />
        </mxCell>
        <mxCell id="VgMdmC_-06mLi6aTnrPO-9" value="" style="endArrow=open;html=1;rounded=0;exitX=0.5;exitY=1;exitDx=0;exitDy=0;entryX=0.5;entryY=0;entryDx=0;entryDy=0;endFill=0;" edge="1" parent="1" source="VgMdmC_-06mLi6aTnrPO-1" target="VgMdmC_-06mLi6aTnrPO-2">
          <mxGeometry width="50" height="50" relative="1" as="geometry">
            <mxPoint x="610" y="450" as="sourcePoint" />
            <mxPoint x="660" y="400" as="targetPoint" />
          </mxGeometry>
        </mxCell>
        <mxCell id="VgMdmC_-06mLi6aTnrPO-10" value="" style="endArrow=open;html=1;rounded=0;exitX=0.5;exitY=1;exitDx=0;exitDy=0;endFill=0;" edge="1" parent="1">
          <mxGeometry width="50" height="50" relative="1" as="geometry">
            <mxPoint x="579.5" y="500" as="sourcePoint" />
            <mxPoint x="580" y="540" as="targetPoint" />
          </mxGeometry>
        </mxCell>
        <mxCell id="VgMdmC_-06mLi6aTnrPO-11" value="" style="endArrow=open;html=1;rounded=0;exitX=0.5;exitY=1;exitDx=0;exitDy=0;endFill=0;" edge="1" parent="1">
          <mxGeometry width="50" height="50" relative="1" as="geometry">
            <mxPoint x="579.5" y="560" as="sourcePoint" />
            <mxPoint x="580" y="600" as="targetPoint" />
          </mxGeometry>
        </mxCell>
        <mxCell id="VgMdmC_-06mLi6aTnrPO-12" value="" style="endArrow=open;html=1;rounded=0;exitX=0.5;exitY=1;exitDx=0;exitDy=0;endFill=0;" edge="1" parent="1">
          <mxGeometry width="50" height="50" relative="1" as="geometry">
            <mxPoint x="579.5" y="620" as="sourcePoint" />
            <mxPoint x="580" y="660" as="targetPoint" />
          </mxGeometry>
        </mxCell>
        <mxCell id="VgMdmC_-06mLi6aTnrPO-14" value="map&lt;sub&gt;0,1&lt;/sub&gt;" style="text;html=1;strokeColor=none;fillColor=none;align=center;verticalAlign=middle;whiteSpace=wrap;rounded=0;" vertex="1" parent="1">
          <mxGeometry x="535" y="450" width="40" height="20" as="geometry" />
        </mxCell>
        <mxCell id="VgMdmC_-06mLi6aTnrPO-15" value="map&lt;sub&gt;1,2&lt;/sub&gt;" style="text;html=1;strokeColor=none;fillColor=none;align=center;verticalAlign=middle;whiteSpace=wrap;rounded=0;" vertex="1" parent="1">
          <mxGeometry x="535" y="510" width="40" height="20" as="geometry" />
        </mxCell>
        <mxCell id="VgMdmC_-06mLi6aTnrPO-16" value="map&lt;sub&gt;&lt;i&gt;n&lt;/i&gt;-2,&lt;i&gt;n&lt;/i&gt;-1&lt;/sub&gt;" style="text;html=1;strokeColor=none;fillColor=none;align=center;verticalAlign=middle;whiteSpace=wrap;rounded=0;" vertex="1" parent="1">
          <mxGeometry x="515" y="570" width="60" height="20" as="geometry" />
        </mxCell>
        <mxCell id="VgMdmC_-06mLi6aTnrPO-17" value="map&lt;sub&gt;&lt;i&gt;n&lt;/i&gt;-1,&lt;i&gt;n&lt;/i&gt;&lt;/sub&gt;" style="text;html=1;strokeColor=none;fillColor=none;align=center;verticalAlign=middle;whiteSpace=wrap;rounded=0;" vertex="1" parent="1">
          <mxGeometry x="515" y="630" width="60" height="20" as="geometry" />
        </mxCell>
        <mxCell id="VgMdmC_-06mLi6aTnrPO-18" value="&lt;b&gt;dimensions to search:&lt;/b&gt;" style="text;html=1;strokeColor=none;fillColor=none;align=center;verticalAlign=middle;whiteSpace=wrap;rounded=0;" vertex="1" parent="1">
          <mxGeometry x="630" y="360" width="240" height="30" as="geometry" />
        </mxCell>
        <mxCell id="VgMdmC_-06mLi6aTnrPO-19" value="0" style="text;html=1;strokeColor=none;fillColor=none;align=center;verticalAlign=middle;whiteSpace=wrap;rounded=0;fontStyle=1;fontColor=#FF0000;" vertex="1" parent="1">
          <mxGeometry x="650" y="660" width="20" height="20" as="geometry" />
        </mxCell>
        <mxCell id="VgMdmC_-06mLi6aTnrPO-20" value="1" style="text;html=1;strokeColor=none;fillColor=none;align=center;verticalAlign=middle;whiteSpace=wrap;rounded=0;fontStyle=1;fontColor=#FF0000;" vertex="1" parent="1">
          <mxGeometry x="690" y="660" width="20" height="20" as="geometry" />
        </mxCell>
        <mxCell id="VgMdmC_-06mLi6aTnrPO-21" value="2" style="text;html=1;strokeColor=none;fillColor=none;align=center;verticalAlign=middle;whiteSpace=wrap;rounded=0;" vertex="1" parent="1">
          <mxGeometry x="730" y="660" width="20" height="20" as="geometry" />
        </mxCell>
        <mxCell id="VgMdmC_-06mLi6aTnrPO-22" value="&lt;i&gt;m&lt;/i&gt;−1" style="text;html=1;strokeColor=none;fillColor=none;align=center;verticalAlign=middle;whiteSpace=wrap;rounded=0;" vertex="1" parent="1">
          <mxGeometry x="840" y="660" width="40" height="20" as="geometry" />
        </mxCell>
        <mxCell id="VgMdmC_-06mLi6aTnrPO-23" value="&lt;i&gt;m&lt;/i&gt;" style="text;html=1;strokeColor=none;fillColor=none;align=center;verticalAlign=middle;whiteSpace=wrap;rounded=0;" vertex="1" parent="1">
          <mxGeometry x="890" y="660" width="20" height="20" as="geometry" />
        </mxCell>
        <mxCell id="VgMdmC_-06mLi6aTnrPO-24" value="&lt;b&gt;⋯&lt;/b&gt;" style="text;html=1;strokeColor=none;fillColor=none;align=center;verticalAlign=middle;whiteSpace=wrap;rounded=0;" vertex="1" parent="1">
          <mxGeometry x="810" y="660" width="20" height="20" as="geometry" />
        </mxCell>
        <mxCell id="VgMdmC_-06mLi6aTnrPO-32" value="⋮" style="text;html=1;strokeColor=none;fillColor=none;align=center;verticalAlign=middle;whiteSpace=wrap;rounded=0;fontStyle=1;fontColor=#FF0000;" vertex="1" parent="1">
          <mxGeometry x="650" y="540" width="20" height="20" as="geometry" />
        </mxCell>
        <mxCell id="VgMdmC_-06mLi6aTnrPO-33" value="⋮" style="text;html=1;strokeColor=none;fillColor=none;align=center;verticalAlign=middle;whiteSpace=wrap;rounded=0;fontStyle=1;fontColor=#FF0000;" vertex="1" parent="1">
          <mxGeometry x="690" y="540" width="20" height="20" as="geometry" />
        </mxCell>
        <mxCell id="VgMdmC_-06mLi6aTnrPO-34" value="⋮" style="text;html=1;strokeColor=none;fillColor=none;align=center;verticalAlign=middle;whiteSpace=wrap;rounded=0;fontStyle=1" vertex="1" parent="1">
          <mxGeometry x="730" y="540" width="20" height="20" as="geometry" />
        </mxCell>
        <mxCell id="VgMdmC_-06mLi6aTnrPO-35" value="&lt;b style=&quot;border-color: var(--border-color);&quot;&gt;⋯&lt;/b&gt;" style="text;html=1;strokeColor=none;fillColor=none;align=center;verticalAlign=middle;whiteSpace=wrap;rounded=0;fontStyle=1" vertex="1" parent="1">
          <mxGeometry x="810" y="540" width="20" height="20" as="geometry" />
        </mxCell>
        <mxCell id="VgMdmC_-06mLi6aTnrPO-36" value="⋮" style="text;html=1;strokeColor=none;fillColor=none;align=center;verticalAlign=middle;whiteSpace=wrap;rounded=0;fontStyle=1" vertex="1" parent="1">
          <mxGeometry x="850" y="540" width="20" height="20" as="geometry" />
        </mxCell>
        <mxCell id="VgMdmC_-06mLi6aTnrPO-53" value="0" style="text;html=1;strokeColor=none;fillColor=none;align=center;verticalAlign=middle;whiteSpace=wrap;rounded=0;fontStyle=1;fontColor=#FF0000;" vertex="1" parent="1">
          <mxGeometry x="650" y="600" width="20" height="20" as="geometry" />
        </mxCell>
        <mxCell id="VgMdmC_-06mLi6aTnrPO-54" value="1" style="text;html=1;strokeColor=none;fillColor=none;align=center;verticalAlign=middle;whiteSpace=wrap;rounded=0;fontStyle=1;fontColor=#FF0000;" vertex="1" parent="1">
          <mxGeometry x="690" y="600" width="20" height="20" as="geometry" />
        </mxCell>
        <mxCell id="VgMdmC_-06mLi6aTnrPO-55" value="2" style="text;html=1;strokeColor=none;fillColor=none;align=center;verticalAlign=middle;whiteSpace=wrap;rounded=0;" vertex="1" parent="1">
          <mxGeometry x="730" y="600" width="20" height="20" as="geometry" />
        </mxCell>
        <mxCell id="VgMdmC_-06mLi6aTnrPO-56" value="&lt;i&gt;m&lt;/i&gt;−1" style="text;html=1;strokeColor=none;fillColor=none;align=center;verticalAlign=middle;whiteSpace=wrap;rounded=0;" vertex="1" parent="1">
          <mxGeometry x="840" y="600" width="40" height="20" as="geometry" />
        </mxCell>
        <mxCell id="VgMdmC_-06mLi6aTnrPO-57" value="&lt;i&gt;m&lt;/i&gt;" style="text;html=1;strokeColor=none;fillColor=none;align=center;verticalAlign=middle;whiteSpace=wrap;rounded=0;" vertex="1" parent="1">
          <mxGeometry x="890" y="600" width="20" height="20" as="geometry" />
        </mxCell>
        <mxCell id="VgMdmC_-06mLi6aTnrPO-58" value="&lt;b&gt;⋯&lt;/b&gt;" style="text;html=1;strokeColor=none;fillColor=none;align=center;verticalAlign=middle;whiteSpace=wrap;rounded=0;" vertex="1" parent="1">
          <mxGeometry x="810" y="600" width="20" height="20" as="geometry" />
        </mxCell>
        <mxCell id="VgMdmC_-06mLi6aTnrPO-60" value="⋮" style="text;html=1;strokeColor=none;fillColor=none;align=center;verticalAlign=middle;whiteSpace=wrap;rounded=0;fontStyle=1" vertex="1" parent="1">
          <mxGeometry x="890" y="540" width="20" height="20" as="geometry" />
        </mxCell>
        <mxCell id="VgMdmC_-06mLi6aTnrPO-61" value="0" style="text;html=1;strokeColor=none;fillColor=none;align=center;verticalAlign=middle;whiteSpace=wrap;rounded=0;fontStyle=1;fontColor=#FF0000;" vertex="1" parent="1">
          <mxGeometry x="650" y="480" width="20" height="20" as="geometry" />
        </mxCell>
        <mxCell id="VgMdmC_-06mLi6aTnrPO-62" value="1" style="text;html=1;strokeColor=none;fillColor=none;align=center;verticalAlign=middle;whiteSpace=wrap;rounded=0;fontStyle=1;fontColor=#FF0000;" vertex="1" parent="1">
          <mxGeometry x="690" y="480" width="20" height="20" as="geometry" />
        </mxCell>
        <mxCell id="VgMdmC_-06mLi6aTnrPO-63" value="2" style="text;html=1;strokeColor=none;fillColor=none;align=center;verticalAlign=middle;whiteSpace=wrap;rounded=0;" vertex="1" parent="1">
          <mxGeometry x="730" y="480" width="20" height="20" as="geometry" />
        </mxCell>
        <mxCell id="VgMdmC_-06mLi6aTnrPO-64" value="&lt;i&gt;m&amp;nbsp;&lt;/i&gt;− 1" style="text;html=1;strokeColor=none;fillColor=none;align=center;verticalAlign=middle;whiteSpace=wrap;rounded=0;" vertex="1" parent="1">
          <mxGeometry x="840" y="480" width="40" height="20" as="geometry" />
        </mxCell>
        <mxCell id="VgMdmC_-06mLi6aTnrPO-65" value="&lt;i&gt;m&lt;/i&gt;" style="text;html=1;strokeColor=none;fillColor=none;align=center;verticalAlign=middle;whiteSpace=wrap;rounded=0;" vertex="1" parent="1">
          <mxGeometry x="890" y="480" width="20" height="20" as="geometry" />
        </mxCell>
        <mxCell id="VgMdmC_-06mLi6aTnrPO-66" value="&lt;b&gt;⋯&lt;/b&gt;" style="text;html=1;strokeColor=none;fillColor=none;align=center;verticalAlign=middle;whiteSpace=wrap;rounded=0;" vertex="1" parent="1">
          <mxGeometry x="810" y="480" width="20" height="20" as="geometry" />
        </mxCell>
        <mxCell id="VgMdmC_-06mLi6aTnrPO-68" value="0" style="text;html=1;strokeColor=none;fillColor=none;align=center;verticalAlign=middle;whiteSpace=wrap;rounded=0;fontStyle=1;fontColor=#FF0000;" vertex="1" parent="1">
          <mxGeometry x="650" y="420" width="20" height="20" as="geometry" />
        </mxCell>
        <mxCell id="VgMdmC_-06mLi6aTnrPO-69" value="1" style="text;html=1;strokeColor=none;fillColor=none;align=center;verticalAlign=middle;whiteSpace=wrap;rounded=0;fontStyle=1;fontColor=#FF0000;" vertex="1" parent="1">
          <mxGeometry x="690" y="420" width="20" height="20" as="geometry" />
        </mxCell>
        <mxCell id="VgMdmC_-06mLi6aTnrPO-70" value="2" style="text;html=1;strokeColor=none;fillColor=none;align=center;verticalAlign=middle;whiteSpace=wrap;rounded=0;" vertex="1" parent="1">
          <mxGeometry x="730" y="420" width="20" height="20" as="geometry" />
        </mxCell>
        <mxCell id="VgMdmC_-06mLi6aTnrPO-71" value="&lt;i&gt;m&amp;nbsp;&lt;/i&gt;− 1" style="text;html=1;strokeColor=none;fillColor=none;align=center;verticalAlign=middle;whiteSpace=wrap;rounded=0;" vertex="1" parent="1">
          <mxGeometry x="840" y="420" width="40" height="20" as="geometry" />
        </mxCell>
        <mxCell id="VgMdmC_-06mLi6aTnrPO-72" value="&lt;i&gt;m&lt;/i&gt;" style="text;html=1;strokeColor=none;fillColor=none;align=center;verticalAlign=middle;whiteSpace=wrap;rounded=0;" vertex="1" parent="1">
          <mxGeometry x="890" y="420" width="20" height="20" as="geometry" />
        </mxCell>
        <mxCell id="VgMdmC_-06mLi6aTnrPO-73" value="&lt;b&gt;⋯&lt;/b&gt;" style="text;html=1;strokeColor=none;fillColor=none;align=center;verticalAlign=middle;whiteSpace=wrap;rounded=0;" vertex="1" parent="1">
          <mxGeometry x="810" y="420" width="20" height="20" as="geometry" />
        </mxCell>
        <mxCell id="VgMdmC_-06mLi6aTnrPO-75" value="" style="endArrow=classicThin;html=1;rounded=0;strokeColor=#FF0000;strokeWidth=2;endFill=1;exitX=1;exitY=0.5;exitDx=0;exitDy=0;entryX=0;entryY=0.5;entryDx=0;entryDy=0;" edge="1" parent="1">
          <mxGeometry width="50" height="50" relative="1" as="geometry">
            <mxPoint x="710" y="669.86" as="sourcePoint" />
            <mxPoint x="730" y="669.86" as="targetPoint" />
          </mxGeometry>
        </mxCell>
        <mxCell id="VgMdmC_-06mLi6aTnrPO-76" value="" style="endArrow=classicThin;html=1;rounded=0;strokeColor=#FF0000;strokeWidth=2;endFill=1;exitX=1;exitY=0.5;exitDx=0;exitDy=0;entryX=0;entryY=0.5;entryDx=0;entryDy=0;" edge="1" parent="1">
          <mxGeometry width="50" height="50" relative="1" as="geometry">
            <mxPoint x="750" y="669.86" as="sourcePoint" />
            <mxPoint x="770" y="669.86" as="targetPoint" />
          </mxGeometry>
        </mxCell>
        <mxCell id="VgMdmC_-06mLi6aTnrPO-77" value="" style="endArrow=classicThin;html=1;rounded=0;strokeColor=#FF0000;strokeWidth=2;endFill=1;exitX=1;exitY=0.5;exitDx=0;exitDy=0;entryX=0;entryY=0.5;entryDx=0;entryDy=0;" edge="1" parent="1">
          <mxGeometry width="50" height="50" relative="1" as="geometry">
            <mxPoint x="827" y="669.62" as="sourcePoint" />
            <mxPoint x="847" y="669.62" as="targetPoint" />
          </mxGeometry>
        </mxCell>
        <mxCell id="VgMdmC_-06mLi6aTnrPO-78" value="" style="endArrow=classicThin;html=1;rounded=0;strokeColor=#FF0000;strokeWidth=2;endFill=1;exitX=1;exitY=0.5;exitDx=0;exitDy=0;entryX=0;entryY=0.5;entryDx=0;entryDy=0;" edge="1" parent="1">
          <mxGeometry width="50" height="50" relative="1" as="geometry">
            <mxPoint x="873" y="669.86" as="sourcePoint" />
            <mxPoint x="893" y="669.86" as="targetPoint" />
          </mxGeometry>
        </mxCell>
        <mxCell id="VgMdmC_-06mLi6aTnrPO-81" value="&lt;font&gt;simplex_search.Bot.raw&lt;/font&gt;" style="text;html=1;strokeColor=none;fillColor=none;align=center;verticalAlign=middle;whiteSpace=wrap;rounded=0;fontColor=#FF0000;labelBackgroundColor=#FFE6E6;" vertex="1" parent="1">
          <mxGeometry x="750" y="675" width="60" height="30" as="geometry" />
        </mxCell>
        <mxCell id="VgMdmC_-06mLi6aTnrPO-83" value="" style="endArrow=classicThin;html=1;rounded=0;strokeColor=#FF0000;strokeWidth=2;endFill=1;exitX=0.5;exitY=0;exitDx=0;exitDy=0;entryX=0.5;entryY=1;entryDx=0;entryDy=0;" edge="1" parent="1" source="VgMdmC_-06mLi6aTnrPO-21" target="VgMdmC_-06mLi6aTnrPO-55">
          <mxGeometry width="50" height="50" relative="1" as="geometry">
            <mxPoint x="720" y="679.86" as="sourcePoint" />
            <mxPoint x="740" y="679.86" as="targetPoint" />
          </mxGeometry>
        </mxCell>
        <mxCell id="VgMdmC_-06mLi6aTnrPO-84" value="" style="endArrow=classicThin;html=1;rounded=0;strokeColor=#FF0000;strokeWidth=2;endFill=1;exitX=0.5;exitY=0;exitDx=0;exitDy=0;entryX=0.5;entryY=1;entryDx=0;entryDy=0;" edge="1" parent="1">
          <mxGeometry width="50" height="50" relative="1" as="geometry">
            <mxPoint x="739.62" y="600" as="sourcePoint" />
            <mxPoint x="739.62" y="560" as="targetPoint" />
          </mxGeometry>
        </mxCell>
        <mxCell id="VgMdmC_-06mLi6aTnrPO-85" value="" style="endArrow=classicThin;html=1;rounded=0;strokeColor=#FF0000;strokeWidth=2;endFill=1;exitX=0.5;exitY=0;exitDx=0;exitDy=0;entryX=0.5;entryY=1;entryDx=0;entryDy=0;" edge="1" parent="1">
          <mxGeometry width="50" height="50" relative="1" as="geometry">
            <mxPoint x="739.62" y="540" as="sourcePoint" />
            <mxPoint x="739.62" y="500" as="targetPoint" />
          </mxGeometry>
        </mxCell>
        <mxCell id="VgMdmC_-06mLi6aTnrPO-86" value="" style="endArrow=classicThin;html=1;rounded=0;strokeColor=#FF0000;strokeWidth=2;endFill=1;exitX=0.5;exitY=0;exitDx=0;exitDy=0;entryX=0.5;entryY=1;entryDx=0;entryDy=0;" edge="1" parent="1">
          <mxGeometry width="50" height="50" relative="1" as="geometry">
            <mxPoint x="739.62" y="480" as="sourcePoint" />
            <mxPoint x="739.62" y="440" as="targetPoint" />
          </mxGeometry>
        </mxCell>
        <mxCell id="VgMdmC_-06mLi6aTnrPO-88" value="3" style="text;html=1;strokeColor=none;fillColor=none;align=center;verticalAlign=middle;whiteSpace=wrap;rounded=0;" vertex="1" parent="1">
          <mxGeometry x="770" y="660" width="20" height="20" as="geometry" />
        </mxCell>
        <mxCell id="VgMdmC_-06mLi6aTnrPO-89" value="" style="endArrow=classicThin;html=1;rounded=0;strokeColor=#FF0000;strokeWidth=2;endFill=1;exitX=1;exitY=0.5;exitDx=0;exitDy=0;entryX=0;entryY=0.5;entryDx=0;entryDy=0;" edge="1" parent="1">
          <mxGeometry width="50" height="50" relative="1" as="geometry">
            <mxPoint x="790" y="669.62" as="sourcePoint" />
            <mxPoint x="810" y="669.62" as="targetPoint" />
          </mxGeometry>
        </mxCell>
        <mxCell id="VgMdmC_-06mLi6aTnrPO-90" value="3" style="text;html=1;strokeColor=none;fillColor=none;align=center;verticalAlign=middle;whiteSpace=wrap;rounded=0;" vertex="1" parent="1">
          <mxGeometry x="770" y="600" width="20" height="20" as="geometry" />
        </mxCell>
        <mxCell id="VgMdmC_-06mLi6aTnrPO-91" value="3" style="text;html=1;strokeColor=none;fillColor=none;align=center;verticalAlign=middle;whiteSpace=wrap;rounded=0;" vertex="1" parent="1">
          <mxGeometry x="770" y="480" width="20" height="20" as="geometry" />
        </mxCell>
        <mxCell id="VgMdmC_-06mLi6aTnrPO-92" value="3" style="text;html=1;strokeColor=none;fillColor=none;align=center;verticalAlign=middle;whiteSpace=wrap;rounded=0;" vertex="1" parent="1">
          <mxGeometry x="770" y="420" width="20" height="20" as="geometry" />
        </mxCell>
        <mxCell id="VgMdmC_-06mLi6aTnrPO-93" value="" style="endArrow=classicThin;html=1;rounded=0;strokeColor=#FF0000;strokeWidth=2;endFill=1;exitX=0.5;exitY=0;exitDx=0;exitDy=0;entryX=0.5;entryY=1;entryDx=0;entryDy=0;" edge="1" parent="1">
          <mxGeometry width="50" height="50" relative="1" as="geometry">
            <mxPoint x="779.81" y="660" as="sourcePoint" />
            <mxPoint x="779.81" y="620" as="targetPoint" />
          </mxGeometry>
        </mxCell>
        <mxCell id="VgMdmC_-06mLi6aTnrPO-94" value="" style="endArrow=classicThin;html=1;rounded=0;strokeColor=#FF0000;strokeWidth=2;endFill=1;exitX=0.5;exitY=0;exitDx=0;exitDy=0;entryX=0.5;entryY=1;entryDx=0;entryDy=0;" edge="1" parent="1">
          <mxGeometry width="50" height="50" relative="1" as="geometry">
            <mxPoint x="779.43" y="600" as="sourcePoint" />
            <mxPoint x="779.43" y="560" as="targetPoint" />
          </mxGeometry>
        </mxCell>
        <mxCell id="VgMdmC_-06mLi6aTnrPO-95" value="" style="endArrow=classicThin;html=1;rounded=0;strokeColor=#FF0000;strokeWidth=2;endFill=1;exitX=0.5;exitY=0;exitDx=0;exitDy=0;entryX=0.5;entryY=1;entryDx=0;entryDy=0;" edge="1" parent="1">
          <mxGeometry width="50" height="50" relative="1" as="geometry">
            <mxPoint x="779.43" y="540" as="sourcePoint" />
            <mxPoint x="779.43" y="500" as="targetPoint" />
          </mxGeometry>
        </mxCell>
        <mxCell id="VgMdmC_-06mLi6aTnrPO-96" value="" style="endArrow=classicThin;html=1;rounded=0;strokeColor=#FF0000;strokeWidth=2;endFill=1;exitX=0.5;exitY=0;exitDx=0;exitDy=0;entryX=0.5;entryY=1;entryDx=0;entryDy=0;" edge="1" parent="1">
          <mxGeometry width="50" height="50" relative="1" as="geometry">
            <mxPoint x="779.43" y="480" as="sourcePoint" />
            <mxPoint x="779.43" y="440" as="targetPoint" />
          </mxGeometry>
        </mxCell>
        <mxCell id="VgMdmC_-06mLi6aTnrPO-82" value="" style="curved=1;endArrow=oval;html=1;rounded=0;exitX=1;exitY=0.5;exitDx=0;exitDy=0;dashed=1;dashPattern=1 1;strokeColor=#0800FC;strokeWidth=2;endFill=1;startArrow=baseDash;startFill=0;" edge="1" parent="1" source="VgMdmC_-06mLi6aTnrPO-23">
          <mxGeometry width="50" height="50" relative="1" as="geometry">
            <mxPoint x="700" y="520" as="sourcePoint" />
            <mxPoint x="740" y="640" as="targetPoint" />
            <Array as="points">
              <mxPoint x="930" y="670" />
              <mxPoint x="930" y="720" />
              <mxPoint x="840" y="720" />
              <mxPoint x="740" y="720" />
              <mxPoint x="670" y="720" />
              <mxPoint x="670" y="640" />
              <mxPoint x="730" y="640" />
            </Array>
          </mxGeometry>
        </mxCell>
        <mxCell id="VgMdmC_-06mLi6aTnrPO-87" value="" style="curved=1;endArrow=oval;html=1;rounded=0;exitX=0.5;exitY=0;exitDx=0;exitDy=0;dashed=1;dashPattern=1 1;strokeColor=#0800FC;strokeWidth=2;endFill=1;startArrow=baseDash;startFill=0;" edge="1" parent="1" source="VgMdmC_-06mLi6aTnrPO-70">
          <mxGeometry width="50" height="50" relative="1" as="geometry">
            <mxPoint x="1130" y="370" as="sourcePoint" />
            <mxPoint x="780" y="640" as="targetPoint" />
            <Array as="points">
              <mxPoint x="740" y="410" />
              <mxPoint x="750" y="400" />
              <mxPoint x="760" y="410" />
              <mxPoint x="760" y="520" />
              <mxPoint x="760" y="630" />
              <mxPoint x="770" y="640" />
            </Array>
          </mxGeometry>
        </mxCell>
        <mxCell id="VgMdmC_-06mLi6aTnrPO-103" value="" style="curved=1;endArrow=oval;html=1;rounded=0;exitX=0.5;exitY=0;exitDx=0;exitDy=0;dashed=1;dashPattern=1 1;strokeColor=#0800FC;strokeWidth=2;endFill=1;startArrow=baseDash;startFill=0;" edge="1" parent="1">
          <mxGeometry width="50" height="50" relative="1" as="geometry">
            <mxPoint x="780" y="420" as="sourcePoint" />
            <mxPoint x="820" y="640" as="targetPoint" />
            <Array as="points">
              <mxPoint x="780" y="410" />
              <mxPoint x="790" y="400" />
              <mxPoint x="800" y="410" />
              <mxPoint x="800" y="520" />
              <mxPoint x="800" y="630" />
              <mxPoint x="810" y="640" />
            </Array>
          </mxGeometry>
        </mxCell>
        <mxCell id="VgMdmC_-06mLi6aTnrPO-107" value="" style="endArrow=classicThin;html=1;rounded=0;strokeColor=#FF0000;strokeWidth=2;endFill=1;exitX=0.5;exitY=0;exitDx=0;exitDy=0;entryX=0.5;entryY=1;entryDx=0;entryDy=0;" edge="1" parent="1">
          <mxGeometry width="50" height="50" relative="1" as="geometry">
            <mxPoint x="859.81" y="660" as="sourcePoint" />
            <mxPoint x="859.81" y="620" as="targetPoint" />
          </mxGeometry>
        </mxCell>
        <mxCell id="VgMdmC_-06mLi6aTnrPO-108" value="" style="endArrow=classicThin;html=1;rounded=0;strokeColor=#FF0000;strokeWidth=2;endFill=1;exitX=0.5;exitY=0;exitDx=0;exitDy=0;entryX=0.5;entryY=1;entryDx=0;entryDy=0;" edge="1" parent="1">
          <mxGeometry width="50" height="50" relative="1" as="geometry">
            <mxPoint x="859.43" y="600" as="sourcePoint" />
            <mxPoint x="859.43" y="560" as="targetPoint" />
          </mxGeometry>
        </mxCell>
        <mxCell id="VgMdmC_-06mLi6aTnrPO-109" value="" style="endArrow=classicThin;html=1;rounded=0;strokeColor=#FF0000;strokeWidth=2;endFill=1;exitX=0.5;exitY=0;exitDx=0;exitDy=0;entryX=0.5;entryY=1;entryDx=0;entryDy=0;" edge="1" parent="1">
          <mxGeometry width="50" height="50" relative="1" as="geometry">
            <mxPoint x="859.43" y="540" as="sourcePoint" />
            <mxPoint x="859.43" y="500" as="targetPoint" />
          </mxGeometry>
        </mxCell>
        <mxCell id="VgMdmC_-06mLi6aTnrPO-110" value="" style="endArrow=classicThin;html=1;rounded=0;strokeColor=#FF0000;strokeWidth=2;endFill=1;exitX=0.5;exitY=0;exitDx=0;exitDy=0;entryX=0.5;entryY=1;entryDx=0;entryDy=0;" edge="1" parent="1">
          <mxGeometry width="50" height="50" relative="1" as="geometry">
            <mxPoint x="859.43" y="480" as="sourcePoint" />
            <mxPoint x="859.43" y="440" as="targetPoint" />
          </mxGeometry>
        </mxCell>
        <mxCell id="VgMdmC_-06mLi6aTnrPO-104" value="" style="curved=1;endArrow=oval;html=1;rounded=0;exitX=0.5;exitY=0;exitDx=0;exitDy=0;dashed=1;dashPattern=1 1;strokeColor=#0800FC;strokeWidth=2;endFill=1;startArrow=baseDash;startFill=0;" edge="1" parent="1">
          <mxGeometry width="50" height="50" relative="1" as="geometry">
            <mxPoint x="820" y="420" as="sourcePoint" />
            <mxPoint x="860" y="640" as="targetPoint" />
            <Array as="points">
              <mxPoint x="820" y="410" />
              <mxPoint x="830" y="400" />
              <mxPoint x="840" y="410" />
              <mxPoint x="840" y="520" />
              <mxPoint x="840" y="630" />
              <mxPoint x="850" y="640" />
            </Array>
          </mxGeometry>
        </mxCell>
        <mxCell id="VgMdmC_-06mLi6aTnrPO-111" value="" style="endArrow=classicThin;html=1;rounded=0;strokeColor=#FF0000;strokeWidth=2;endFill=1;exitX=0.5;exitY=0;exitDx=0;exitDy=0;entryX=0.5;entryY=1;entryDx=0;entryDy=0;" edge="1" parent="1">
          <mxGeometry width="50" height="50" relative="1" as="geometry">
            <mxPoint x="899.81" y="660" as="sourcePoint" />
            <mxPoint x="899.81" y="620" as="targetPoint" />
          </mxGeometry>
        </mxCell>
        <mxCell id="VgMdmC_-06mLi6aTnrPO-112" value="" style="endArrow=classicThin;html=1;rounded=0;strokeColor=#FF0000;strokeWidth=2;endFill=1;exitX=0.5;exitY=0;exitDx=0;exitDy=0;entryX=0.5;entryY=1;entryDx=0;entryDy=0;" edge="1" parent="1">
          <mxGeometry width="50" height="50" relative="1" as="geometry">
            <mxPoint x="899.43" y="600" as="sourcePoint" />
            <mxPoint x="899.43" y="560" as="targetPoint" />
          </mxGeometry>
        </mxCell>
        <mxCell id="VgMdmC_-06mLi6aTnrPO-113" value="" style="endArrow=classicThin;html=1;rounded=0;strokeColor=#FF0000;strokeWidth=2;endFill=1;exitX=0.5;exitY=0;exitDx=0;exitDy=0;entryX=0.5;entryY=1;entryDx=0;entryDy=0;" edge="1" parent="1">
          <mxGeometry width="50" height="50" relative="1" as="geometry">
            <mxPoint x="899.43" y="540" as="sourcePoint" />
            <mxPoint x="899.43" y="500" as="targetPoint" />
          </mxGeometry>
        </mxCell>
        <mxCell id="VgMdmC_-06mLi6aTnrPO-114" value="" style="endArrow=classicThin;html=1;rounded=0;strokeColor=#FF0000;strokeWidth=2;endFill=1;exitX=0.5;exitY=0;exitDx=0;exitDy=0;entryX=0.5;entryY=1;entryDx=0;entryDy=0;" edge="1" parent="1">
          <mxGeometry width="50" height="50" relative="1" as="geometry">
            <mxPoint x="899.43" y="480" as="sourcePoint" />
            <mxPoint x="899.43" y="440" as="targetPoint" />
          </mxGeometry>
        </mxCell>
        <mxCell id="VgMdmC_-06mLi6aTnrPO-115" value="" style="curved=1;endArrow=oval;html=1;rounded=0;exitX=0.5;exitY=0;exitDx=0;exitDy=0;dashed=1;dashPattern=1 1;strokeColor=#0800FC;strokeWidth=2;endFill=1;startArrow=baseDash;startFill=0;" edge="1" parent="1">
          <mxGeometry width="50" height="50" relative="1" as="geometry">
            <mxPoint x="860" y="420" as="sourcePoint" />
            <mxPoint x="900" y="640" as="targetPoint" />
            <Array as="points">
              <mxPoint x="860" y="410" />
              <mxPoint x="870" y="400" />
              <mxPoint x="880" y="410" />
              <mxPoint x="880" y="520" />
              <mxPoint x="880" y="630" />
              <mxPoint x="890" y="640" />
            </Array>
          </mxGeometry>
        </mxCell>
      </root>
    </mxGraphModel>
  </diagram>
</mxfile>
